<?xml version="1.0" standalone="no"?>
<!DOCTYPE svg PUBLIC "-//W3C//DTD SVG 20010904//EN"
 "http://www.w3.org/TR/2001/REC-SVG-20010904/DTD/svg10.dtd">
<svg version="1.0" xmlns="http://www.w3.org/2000/svg"
 width="512.000000pt" height="512.000000pt" viewBox="0 0 512.000000 512.000000"
 preserveAspectRatio="xMidYMid meet">
<metadata>
Created by potrace 1.11, written by Peter Selinger 2001-2013
</metadata>
<g transform="translate(0.000000,512.000000) scale(0.100000,-0.100000)"
fill="#000000" stroke="none">
<path d="M1320 4570 c-154 -32 -293 -95 -384 -175 -22 -19 -44 -31 -49 -28 -6
3 -7 1 -4 -4 4 -6 -8 -25 -27 -41 -19 -17 -32 -34 -28 -38 4 -4 -2 -4 -12 0
-14 5 -16 3 -8 -6 7 -9 6 -16 -3 -25 -7 -6 -15 -9 -19 -6 -7 8 -36 -16 -36
-30 0 -6 6 -3 13 8 10 12 16 14 21 7 4 -7 3 -12 -2 -12 -5 0 -14 -11 -20 -25
-7 -15 -19 -25 -28 -23 -10 2 -19 -4 -21 -12 -4 -12 -3 -12 5 -2 7 11 10 11
15 -2 4 -10 1 -16 -8 -16 -8 0 -15 -5 -15 -11 0 -5 5 -7 10 -4 6 3 1 -10 -11
-29 -12 -20 -18 -36 -14 -36 4 0 2 -6 -4 -13 -6 -8 -8 -17 -4 -20 3 -4 1 -7
-5 -7 -7 0 -12 -9 -12 -20 0 -11 -5 -20 -11 -20 -5 0 -7 -5 -4 -10 4 -6 0 -22
-9 -35 -19 -29 -20 -39 -4 -29 7 5 8 3 2 -7 -4 -8 -9 -20 -10 -27 -2 -8 -11
-20 -21 -28 -11 -8 -13 -13 -5 -14 21 0 14 -40 -8 -40 -23 0 -27 16 -5 23 12
4 11 5 -1 3 -25 -2 -29 -26 -6 -33 16 -4 19 -10 13 -27 -5 -11 -6 -27 -4 -33
3 -7 0 -13 -7 -13 -6 0 -8 5 -5 10 3 6 1 10 -4 10 -14 0 -14 -6 1 -29 6 -11 8
-26 3 -37 -8 -19 -10 -31 -13 -72 -1 -13 -6 -20 -12 -17 -5 3 -10 1 -10 -4 0
-6 6 -11 13 -11 8 0 7 -4 -3 -10 -13 -9 -13 -11 0 -21 13 -9 12 -10 -3 -5 -11
3 -16 2 -12 -4 3 -6 2 -10 -4 -10 -15 0 -23 18 -11 25 5 3 10 12 10 18 -1 10
-21 -16 -26 -33 -1 -3 -5 -15 -9 -27 -4 -13 -12 -20 -18 -16 -6 3 -7 1 -3 -5
10 -17 16 -15 25 9 5 14 18 23 37 25 26 3 27 1 11 -10 -18 -14 -24 -32 -7 -21
6 3 10 1 10 -4 0 -6 -3 -11 -8 -11 -4 0 -7 -18 -6 -40 1 -40 -11 -54 -22 -25
-4 8 -1 22 5 29 7 9 8 17 2 20 -5 3 -7 16 -5 29 l5 22 -10 -22 c-6 -13 -16
-23 -23 -23 -8 0 -7 -4 4 -10 19 -12 12 -54 -8 -46 -7 3 -16 0 -20 -6 -5 -7
-2 -8 6 -3 10 6 12 4 6 -10 -7 -18 -6 -18 13 -1 19 17 21 17 27 2 3 -9 10 -13
15 -10 5 3 6 -1 3 -9 -2 -7 -12 -14 -20 -14 -9 0 -13 6 -9 16 5 12 2 12 -13
-2 -10 -9 -21 -15 -24 -12 -2 3 -5 -2 -5 -10 0 -8 4 -12 9 -9 4 3 8 0 8 -5 0
-6 5 -11 11 -11 8 0 8 5 -1 15 -11 13 -9 15 11 12 21 -4 24 -9 22 -43 -5 -88
-9 -120 -16 -131 -5 -8 -3 -13 5 -13 10 0 10 -2 -1 -9 -9 -6 -10 -11 -2 -15 7
-4 8 -14 3 -24 -5 -9 -8 -58 -8 -109 1 -50 -3 -89 -8 -86 -4 3 -5 -5 -2 -18 7
-23 6 -23 -8 -5 -12 14 -13 24 -5 38 8 15 8 23 -1 32 -8 8 -9 7 -4 -7 3 -10 3
-17 -2 -16 -22 4 -35 -2 -28 -12 4 -8 9 -7 16 2 7 10 8 9 4 -5 -4 -10 -1 -25
5 -33 7 -7 8 -17 4 -21 -4 -4 -10 -2 -12 4 -2 6 -11 20 -19 30 -14 18 -15 18
-5 -3 8 -15 8 -24 1 -28 -6 -4 -8 -11 -4 -16 3 -5 0 -16 -6 -24 -7 -9 -8 -15
-2 -15 11 0 24 28 17 39 -2 4 8 8 24 8 25 0 28 -4 28 -33 0 -18 -4 -31 -8 -29
-4 3 -9 -2 -12 -10 -4 -9 -1 -12 7 -9 7 3 13 -2 13 -11 0 -19 -11 -19 -31 0
-20 20 -32 19 -15 -2 12 -15 12 -16 -3 -10 -10 3 -20 1 -24 -5 -4 -7 -3 -8 4
-4 16 10 15 -6 0 -24 -7 -8 -1 -5 13 8 24 21 66 22 54 1 -3 -4 -12 -6 -20 -2
-17 6 -21 -22 -5 -32 6 -3 10 -12 10 -18 -1 -7 -8 -3 -18 9 -10 11 -23 19 -31
16 -8 -3 -5 -8 11 -16 15 -8 22 -19 20 -32 -3 -18 -3 -18 11 1 9 11 19 16 24
11 4 -5 2 -11 -4 -13 -7 -3 -13 -9 -13 -14 0 -6 4 -8 8 -5 4 2 8 -13 7 -34 0
-21 -3 -36 -7 -33 -5 2 -8 -1 -8 -8 0 -8 -7 -6 -19 5 -11 10 -26 16 -33 13 -9
-4 -8 -6 3 -6 9 -1 22 -7 29 -15 6 -8 18 -12 26 -9 8 3 14 1 14 -5 0 -20 -25
-19 -48 2 -21 19 -22 19 -16 2 5 -12 4 -17 -3 -13 -5 3 -10 0 -10 -8 0 -8 4
-12 9 -9 4 3 8 1 8 -5 0 -5 -6 -12 -12 -15 -7 -3 -2 -3 12 1 22 5 23 4 11 -11
-9 -10 -10 -16 -2 -16 6 0 11 4 11 8 0 4 9 8 20 9 11 1 20 -2 20 -6 0 -13 -49
-31 -67 -24 -15 5 -14 3 2 -10 l20 -16 -20 -1 c-17 0 -17 -2 -5 -10 11 -7 17
-4 24 9 4 11 17 21 27 24 17 5 16 1 -6 -25 -28 -33 -30 -39 -14 -55 8 -8 8
-17 0 -32 -7 -12 -8 -21 -4 -21 4 0 1 -5 -7 -10 -9 -6 -10 -10 -3 -10 6 0 15
4 18 10 9 14 31 -9 33 -34 0 -11 -4 -27 -11 -35 -9 -12 -9 -13 1 -7 8 4 12 1
12 -9 0 -11 -5 -15 -16 -11 -8 3 -13 2 -10 -3 3 -5 -1 -12 -10 -15 -24 -9 -28
-7 -14 9 7 9 8 15 2 15 -20 0 -20 -28 -1 -46 15 -14 22 -15 32 -5 9 10 8 11
-5 6 -10 -4 -18 -3 -18 3 0 8 22 22 34 22 2 0 3 -10 2 -22 -1 -13 3 -26 9 -31
5 -4 -3 -5 -19 -3 -16 3 -36 12 -46 21 -14 13 -17 13 -17 0 0 -8 4 -12 8 -9 4
2 12 -4 18 -13 5 -10 13 -17 18 -15 4 2 9 -2 12 -9 2 -6 -1 -9 -7 -6 -12 8
-35 -18 -37 -43 -1 -11 3 -16 12 -13 11 4 11 8 1 21 -11 13 -10 15 4 9 13 -4
15 -2 11 10 -4 11 -3 14 5 9 7 -4 15 -1 18 8 3 9 11 16 16 16 6 0 3 -11 -6
-24 -9 -14 -13 -33 -9 -42 4 -11 2 -15 -4 -11 -5 4 -19 0 -29 -8 -10 -8 -14
-15 -9 -15 6 0 16 5 23 12 8 8 12 8 12 1 0 -17 -28 -35 -42 -28 -7 4 -4 -2 7
-12 18 -16 20 -24 16 -58 -1 -5 -5 -4 -10 4 -6 9 -8 1 -7 -22 0 -20 6 -41 13
-48 6 -6 9 -18 6 -25 -3 -8 -1 -14 4 -14 15 0 13 38 -3 44 -8 3 -14 11 -14 17
0 8 4 8 15 -1 9 -7 15 -8 15 -2 0 5 -7 13 -16 16 -8 3 -12 11 -8 17 5 8 8 8
14 -1 4 -6 7 7 7 29 0 23 -5 41 -11 41 -8 0 -8 2 0 8 6 4 17 18 24 32 7 14 15
20 17 13 3 -7 -1 -22 -7 -34 -8 -15 -9 -19 -1 -15 6 4 11 0 11 -9 0 -9 -4 -13
-10 -10 -5 3 -10 1 -10 -4 0 -6 8 -11 18 -11 16 -1 16 -1 0 -11 -10 -5 -18
-15 -18 -22 0 -7 4 -6 10 3 5 8 10 13 11 10 0 -3 2 -16 5 -29 3 -19 1 -21 -9
-13 -10 8 -13 6 -13 -7 0 -10 5 -17 11 -14 7 2 12 -2 13 -9 12 -104 11 -134
-4 -145 -12 -9 -22 -9 -35 -2 -11 5 -19 6 -19 1 0 -12 49 -34 61 -26 5 3 7 10
4 15 -4 5 -1 9 4 9 6 0 10 -10 10 -22 -1 -22 2 -47 16 -130 6 -31 3 -37 -14
-43 -12 -3 -21 -11 -21 -17 0 -6 -6 -6 -15 2 -18 15 -20 31 -2 24 7 -2 21 3
32 11 17 13 17 15 3 13 -10 -2 -28 12 -42 31 -15 19 -26 31 -26 26 0 -5 7 -16
16 -26 12 -14 13 -22 4 -39 -9 -17 -9 -25 3 -38 11 -12 13 -22 6 -35 -10 -18
-3 -41 10 -33 4 3 12 -4 19 -15 13 -20 3 -26 -14 -9 -7 7 -11 6 -11 -4 0 -8 4
-13 9 -10 4 3 6 -11 4 -30 -3 -20 -1 -38 3 -40 4 -3 7 8 6 25 -2 31 18 58 30
39 3 -5 2 -10 -3 -10 -5 0 -9 -11 -10 -25 0 -14 3 -24 6 -21 2 3 18 -2 35 -10
20 -11 26 -18 18 -24 -10 -5 -9 -9 3 -13 22 -9 20 -40 -3 -61 -16 -15 -19 -15
-31 -1 -10 12 -10 18 0 30 7 8 17 15 23 15 7 0 7 -4 -1 -12 -7 -7 -12 -17 -12
-23 0 -5 7 -1 15 9 24 32 0 49 -29 20 -9 -8 -16 -11 -16 -5 0 6 -5 11 -11 11
-8 0 -8 -5 1 -15 7 -8 9 -15 5 -15 -4 0 3 -9 16 -20 13 -10 19 -19 13 -20 -5
0 -16 6 -23 13 -8 6 -6 0 4 -16 9 -15 14 -27 10 -27 -4 0 3 -9 16 -20 13 -10
19 -19 13 -20 -5 0 -15 5 -22 12 -8 8 -12 8 -12 1 0 -17 29 -24 51 -13 22 12
26 25 4 16 -8 -3 -21 4 -30 16 -13 20 -13 24 7 45 21 23 40 30 36 15 -1 -4 4
-20 10 -35 16 -38 17 -35 -20 -71 -18 -17 -29 -28 -24 -24 20 16 28 7 12 -11
-17 -19 -17 -20 2 -36 11 -10 18 -27 16 -42 -1 -14 0 -22 3 -19 3 3 12 -1 20
-9 18 -19 25 -19 49 1 14 12 15 14 3 11 -17 -6 -39 10 -39 27 0 6 5 5 12 -2 7
-7 17 -12 22 -12 6 0 0 7 -12 16 -26 18 -29 34 -6 34 8 0 12 -4 9 -10 -3 -5
-2 -10 4 -10 10 0 27 -38 23 -53 -1 -4 3 -7 9 -7 6 0 8 -9 4 -20 -4 -11 -3
-19 2 -18 9 3 13 -5 13 -24 0 -9 -3 -9 -12 0 -15 15 -28 15 -28 1 0 -5 4 -8 9
-5 12 8 30 -16 27 -37 -1 -9 -8 -23 -15 -30 -10 -9 -11 -5 -6 21 3 20 1 32 -5
32 -6 0 -9 -4 -6 -9 4 -5 1 -11 -6 -13 -12 -4 19 -68 34 -68 4 0 6 -6 4 -12
-1 -7 -1 -10 1 -5 3 4 9 7 14 7 6 0 7 -5 4 -10 -3 -6 -2 -10 4 -10 19 0 21 19
2 25 -11 3 -24 12 -30 19 -9 11 -6 13 14 13 13 0 22 -3 20 -7 -3 -4 2 -10 10
-14 19 -7 19 -33 0 -43 -13 -8 -13 -11 0 -30 10 -15 21 -20 33 -16 14 6 15 4
4 -9 -8 -10 -9 -19 -3 -22 5 -4 12 -2 16 4 3 5 3 10 -1 10 -3 0 -1 7 6 15 18
22 28 19 48 -15 14 -22 21 -27 30 -18 8 8 11 5 9 -11 -1 -12 -6 -20 -12 -18
-5 3 -11 -7 -11 -22 -1 -14 1 -20 3 -13 8 22 25 13 18 -10 -4 -16 -3 -18 3 -8
5 8 8 33 8 55 -1 34 -4 40 -21 37 -11 -2 -17 -1 -14 3 4 3 -3 16 -15 29 -18
19 -23 20 -38 8 -10 -8 -18 -10 -22 -3 -4 5 3 12 14 16 11 3 20 11 20 16 0 5
-10 3 -23 -6 -13 -8 -27 -12 -31 -8 -4 4 -4 -1 0 -12 6 -16 4 -18 -6 -8 -16
15 -5 44 14 37 8 -3 17 -1 21 5 3 7 0 8 -9 5 -11 -4 -16 0 -16 10 0 9 0 19 -1
23 0 4 4 9 10 11 7 2 8 -3 5 -13 -4 -9 -2 -15 2 -13 12 4 124 -108 124 -122 0
-6 4 -9 9 -6 5 4 11 3 13 -1 4 -11 77 -59 111 -74 15 -7 27 -16 27 -21 0 -5
-8 -5 -17 0 -10 5 -24 7 -31 5 -7 -3 -11 1 -10 8 2 8 -7 14 -22 14 -35 1 -53
14 -45 33 3 9 3 13 -1 9 -4 -4 -13 -2 -21 4 -8 8 -13 8 -13 1 0 -6 6 -12 13
-15 8 -3 6 -9 -7 -19 -15 -12 -16 -17 -6 -23 8 -5 11 -4 7 2 -4 6 0 14 8 17
18 6 17 -23 0 -37 -6 -5 -4 -7 5 -4 8 2 14 9 13 14 -1 6 9 10 23 11 17 0 22
-4 15 -12 -7 -8 -3 -16 11 -25 17 -11 18 -15 7 -22 -9 -6 -10 -9 -2 -9 6 0 15
5 18 10 3 6 11 10 17 10 6 0 5 -7 -3 -17 -13 -16 -12 -17 3 -4 19 14 14 35 -7
27 -13 -5 -35 12 -35 27 0 5 7 4 15 -3 9 -7 18 -10 22 -7 3 4 12 2 20 -4 10
-9 17 -8 28 1 11 9 15 9 15 1 0 -7 4 -9 10 -6 5 3 10 1 10 -5 0 -7 -6 -10 -14
-7 -8 3 -23 -4 -35 -17 -19 -20 -19 -22 -2 -22 10 0 17 5 15 11 -3 6 5 11 16
12 14 1 24 -6 30 -22 12 -31 22 -36 39 -18 12 13 11 14 -5 9 -14 -4 -22 1 -31
19 -6 14 -7 27 -2 31 5 3 9 0 9 -6 0 -6 4 -9 10 -5 5 3 25 -1 45 -9 19 -8 38
-15 40 -15 22 2 64 -15 59 -23 -4 -6 1 -6 13 1 11 6 23 8 27 4 3 -3 20 -7 38
-7 18 -1 38 -4 43 -7 6 -2 44 -4 87 -4 48 0 74 -4 71 -10 -3 -5 0 -4 8 2 19
19 28 16 22 -7 -3 -11 0 -20 6 -20 5 0 8 6 5 14 -8 20 23 33 66 29 84 -8 101
-6 121 16 18 19 23 20 37 9 9 -7 13 -8 9 -2 -6 10 6 17 53 29 16 4 103 53 151
86 165 112 292 339 345 619 2 14 9 48 14 75 5 28 12 68 16 90 3 22 7 51 9 65
2 14 7 50 10 80 3 30 8 69 10 85 2 17 6 77 10 135 4 58 9 121 11 140 2 19 6
189 10 376 l7 342 -492 0 -492 0 5 -28 c4 -31 -17 -48 -38 -31 -8 6 -17 6 -26
-1 -13 -8 -12 -9 2 -5 12 4 16 0 15 -14 -1 -17 -10 -23 -29 -20 -4 0 -3 -10 2
-23 5 -13 8 -26 7 -27 -1 -2 9 -16 23 -30 l25 -26 0 37 c0 21 -4 36 -9 33 -5
-3 -7 0 -5 6 9 26 24 9 24 -26 0 -21 5 -41 10 -45 7 -5 7 -8 0 -8 -6 0 -9 -29
-9 -69 1 -63 0 -69 -17 -66 -11 2 -19 -1 -19 -6 0 -5 7 -9 16 -7 10 2 19 -2
21 -9 3 -7 -3 -10 -14 -8 -10 2 -29 7 -43 10 l-25 6 25 -12 c14 -6 32 -12 40
-13 9 -2 17 -18 20 -41 l5 -39 50 0 c28 0 53 -5 57 -11 5 -7 8 -6 8 2 0 8 36
11 125 11 91 0 123 -3 118 -12 -5 -7 -2 -7 8 1 8 6 34 12 58 11 28 0 39 -3 30
-9 -11 -7 -11 -9 -1 -9 9 0 7 -9 -7 -29 -18 -25 -19 -30 -5 -35 8 -3 12 -2 9
4 -3 5 -2 17 3 26 6 12 9 5 9 -25 0 -23 -2 -41 -4 -41 -2 0 -15 12 -28 26 -22
23 -23 28 -9 41 21 21 12 38 -19 38 -25 1 -25 0 -10 -17 14 -15 14 -20 2 -35
-8 -9 -9 -14 -2 -10 18 11 22 -16 4 -38 -16 -20 -16 -20 7 -1 12 11 24 17 27
14 3 -3 -1 -11 -10 -18 -8 -7 -15 -17 -15 -23 0 -6 6 -3 13 7 21 28 44 11 44
-34 0 -33 -3 -38 -14 -28 -9 7 -10 15 -4 21 11 11 3 37 -11 37 -6 0 -4 -7 3
-16 12 -15 11 -16 -8 -10 -17 5 -25 2 -34 -16 -6 -13 -8 -20 -4 -16 4 4 14 0
21 -10 8 -9 14 -12 14 -5 0 6 -4 15 -10 18 -5 3 -10 10 -10 16 0 16 15 10 28
-12 10 -16 11 -24 1 -35 -10 -13 -15 -12 -33 3 -12 10 -9 4 7 -13 15 -17 25
-33 21 -36 -3 -4 3 -9 14 -12 16 -6 18 -14 15 -79 -3 -39 -5 -93 -6 -119 0
-27 -5 -48 -10 -48 -5 0 -4 -7 3 -15 7 -8 8 -15 3 -15 -5 0 -9 -19 -10 -42 -2
-58 -6 -88 -13 -88 -3 0 -5 -13 -4 -29 1 -22 -2 -28 -12 -24 -8 3 -14 1 -14
-5 0 -5 8 -13 17 -16 12 -5 14 -9 5 -18 -7 -7 -12 -22 -12 -35 0 -13 -4 -23
-9 -23 -10 0 -8 40 3 58 4 7 2 12 -3 12 -6 0 -11 -7 -11 -16 0 -8 -4 -13 -8
-10 -4 2 -14 0 -22 -6 -12 -8 -11 -9 3 -4 14 5 17 2 12 -13 -3 -12 0 -21 10
-25 12 -4 14 -12 9 -28 -9 -31 -24 -39 -48 -26 -12 6 -18 7 -14 3 4 -5 3 -14
-4 -22 -9 -11 -8 -13 2 -11 7 2 15 -3 18 -11 3 -9 0 -11 -9 -6 -8 5 -5 -1 5
-13 11 -12 14 -22 8 -22 -7 0 -11 -3 -11 -7 3 -17 -2 -29 -22 -53 -11 -14 -18
-18 -14 -10 4 10 2 9 -8 -2 -8 -10 -18 -14 -23 -10 -4 4 -2 -2 6 -13 8 -11 10
-17 6 -13 -5 5 -15 -1 -23 -12 -8 -11 -20 -20 -28 -20 -8 0 -18 -6 -22 -13
-32 -52 -221 -76 -325 -41 -161 52 -247 186 -297 459 -25 135 -29 168 -46 385
-23 301 -24 1091 0 1375 2 28 7 84 10 125 3 41 8 86 10 100 2 14 6 45 9 70 3
25 8 55 10 66 2 12 7 39 10 60 19 119 61 231 114 309 39 56 106 110 124 99 7
-4 8 -3 4 4 -4 7 12 17 46 26 59 17 148 26 148 16 0 -4 14 -4 31 -2 29 4 31 3
25 -19 -6 -19 -5 -21 3 -8 11 18 56 18 74 0 7 -7 7 -11 1 -11 -5 0 -15 5 -22
12 -8 8 -12 8 -12 1 0 -16 31 -25 45 -13 10 8 16 6 24 -7 6 -10 11 -14 11 -9
0 5 9 1 20 -9 11 -10 17 -22 14 -26 -3 -5 3 -6 12 -2 11 4 15 3 10 -5 -3 -6 1
-15 9 -20 15 -8 15 -10 1 -21 -20 -17 -45 -8 -45 16 -1 40 -5 52 -14 46 -6 -3
-8 -2 -4 3 3 5 -11 10 -31 11 -20 1 -51 5 -69 7 -18 3 -35 1 -39 -6 -4 -7 -3
-8 5 -4 6 4 19 2 28 -6 12 -9 15 -9 9 0 -4 6 -2 12 3 12 6 0 11 -5 11 -11 0
-5 5 -7 10 -4 6 3 10 2 10 -4 0 -5 -6 -12 -12 -14 -10 -4 -10 -6 0 -6 7 -1 15
6 18 14 4 8 13 15 21 15 12 0 12 -2 -1 -16 -9 -8 -16 -20 -16 -26 0 -6 8 0 18
12 11 13 24 20 30 16 17 -10 15 -26 -2 -20 -8 3 -17 0 -21 -6 -4 -7 -1 -10 10
-8 10 2 20 -3 22 -10 3 -6 -1 -10 -9 -9 -7 2 -10 2 -6 0 4 -2 5 -12 2 -21 -5
-15 -4 -15 6 0 9 14 14 15 30 6 14 -9 22 -9 35 2 15 13 20 11 41 -15 12 -16
22 -31 21 -34 -1 -3 4 -15 10 -27 7 -12 8 -26 3 -34 -5 -8 -6 -18 -3 -23 3 -5
0 -7 -8 -5 -8 3 -13 12 -11 22 2 9 -2 16 -8 16 -5 0 -9 -5 -7 -11 1 -6 -3 -13
-8 -15 -6 -2 -11 5 -12 16 -1 11 4 20 12 20 7 0 16 7 19 16 4 11 -2 10 -25 -7
-21 -14 -27 -24 -19 -29 6 -4 11 -10 11 -14 -3 -24 0 -28 14 -16 10 8 15 9 15
2 0 -6 -8 -16 -17 -21 -10 -6 -13 -11 -6 -11 6 0 14 4 17 9 8 12 46 21 46 11
0 -4 -9 -10 -20 -13 -11 -3 -20 -11 -20 -19 0 -8 3 -9 8 -2 10 15 37 23 49 16
6 -4 13 -17 17 -29 8 -25 -16 -43 -45 -36 -22 6 -24 14 -7 31 17 17 33 15 18
-3 -9 -10 -9 -15 -1 -15 6 0 11 5 11 11 0 5 6 7 13 3 6 -4 4 1 -5 11 -16 17
-18 17 -42 -2 -19 -15 -22 -23 -13 -32 6 -6 17 -11 24 -11 6 0 16 -7 21 -16 7
-12 14 -14 27 -7 12 7 14 13 6 17 -6 4 -11 2 -11 -4 0 -6 -5 -8 -11 -4 -8 4
-6 10 6 17 20 11 34 -5 30 -32 -3 -22 -44 -22 -58 0 -13 20 -37 26 -37 8 0 -5
4 -8 9 -4 10 6 61 -55 61 -71 -1 -5 -15 7 -32 26 -17 20 -25 25 -19 13 6 -12
15 -24 20 -28 5 -3 8 -21 7 -41 -3 -29 1 -37 24 -49 22 -11 27 -11 27 0 0 7
-6 11 -14 8 -14 -5 -19 12 -5 20 4 2 1 2 -7 0 -8 -2 -11 2 -7 12 3 9 2 13 -4
10 -6 -3 -10 -2 -10 3 0 6 7 13 16 16 22 9 24 8 18 -9 -4 -8 -1 -15 6 -15 6 0
8 5 5 10 -3 6 0 10 7 10 7 0 5 5 -6 11 -15 9 -16 13 -5 21 11 7 9 8 -5 6 -10
-2 -21 2 -22 7 -2 6 7 11 19 11 13 1 24 -3 25 -10 7 -42 6 -72 -3 -78 -5 -4
-1 -8 10 -8 16 0 17 -2 5 -10 -12 -7 -10 -9 7 -7 12 0 20 4 18 7 -2 4 13 12
33 19 20 8 61 24 89 38 29 13 57 22 62 19 5 -3 12 1 15 10 4 9 13 14 21 10 8
-3 15 -1 15 5 0 6 7 8 15 5 9 -3 18 1 21 8 3 8 15 13 26 11 11 -3 18 -1 14 2
-8 9 53 35 65 27 5 -3 9 -1 9 5 0 5 23 20 50 32 28 12 50 26 50 30 0 5 -18 58
-40 119 -142 400 -336 597 -655 666 -119 25 -365 28 -475 4z m599 -764 c1 -6
-5 -1 -13 9 -8 11 -12 24 -8 29 5 9 20 -17 21 -38z m-1412 -1111 c0 -11 -4
-12 -14 -4 -7 6 -13 15 -13 20 0 5 6 6 13 3 8 -3 14 -11 14 -19z m1033 -140
c0 -8 -3 -14 -7 -13 -5 0 -16 -2 -25 -6 -16 -7 -16 -10 -3 -29 22 -31 18 -46
-5 -18 -24 28 -25 47 -4 55 8 3 12 10 9 16 -3 5 3 10 14 10 12 0 21 -7 21 -15z
m-1056 -39 c20 -10 23 -15 12 -19 -8 -3 -22 3 -32 14 -20 23 -16 24 20 5z m26
-92 c0 -4 -7 -12 -17 -19 -13 -9 -13 -14 -3 -20 9 -6 11 -4 5 5 -5 8 -4 11 3
6 13 -8 11 -46 -3 -46 -6 0 -7 -3 0 -8 6 -4 11 -13 13 -21 2 -11 0 -12 -11 -3
-8 7 -17 8 -22 4 -4 -4 -2 3 4 16 9 17 10 27 1 37 -8 10 -8 19 0 34 10 20 30
29 30 15z m1460 -264 c0 -5 -4 -10 -10 -10 -5 0 -10 5 -10 10 0 6 5 10 10 10
6 0 10 -4 10 -10z m-1450 -80 c0 -5 -4 -10 -10 -10 -5 0 -10 5 -10 10 0 6 5
10 10 10 6 0 10 -4 10 -10z m1486 -140 c1 -16 -2 -30 -7 -30 -5 0 -9 7 -9 15
0 8 -5 15 -11 15 -8 0 -8 5 1 15 18 22 25 18 26 -15z m-1481 -380 c3 -5 1 -10
-4 -10 -6 0 -11 5 -11 10 0 6 2 10 4 10 3 0 8 -4 11 -10z m56 -52 c1 -34 15
-123 19 -123 1 0 3 -8 5 -17 4 -23 -9 -23 -31 -1 -14 15 -15 19 -2 26 11 8 8
15 -16 40 -17 17 -34 30 -38 29 -15 -4 -8 17 15 42 27 32 47 33 48 4z m1331
-255 c-2 -13 -9 -23 -14 -23 -5 0 -6 5 -3 10 4 6 1 17 -5 25 -9 11 -8 14 7 12
15 -1 18 -7 15 -24z m-1246 -108 c-3 -8 -1 -15 4 -15 6 0 10 -5 10 -11 0 -8
-5 -7 -15 1 -9 7 -18 10 -22 7 -3 -4 6 -12 21 -18 29 -13 37 -35 9 -24 -10 3
-20 7 -23 8 -3 1 -5 -2 -5 -8 0 -5 4 -9 11 -7 11 2 13 -33 1 -44 -3 -4 4 -15
16 -25 12 -10 17 -18 11 -19 -17 0 -47 38 -39 50 4 7 -3 18 -15 27 -15 11 -18
18 -10 23 6 4 12 14 14 22 2 16 24 48 33 48 3 0 3 -7 -1 -15z m115 -245 c6 0
8 -4 4 -9 -3 -5 2 -17 11 -26 12 -11 14 -19 6 -27 -7 -7 -12 -3 -17 12 -5 16
-10 19 -20 10 -11 -9 -14 -7 -12 9 1 12 5 21 10 21 5 0 4 6 -2 13 -6 8 -7 17
-3 21 4 4 8 1 10 -8 2 -9 8 -16 13 -16z m1037 -385 c-11 -11 -68 -13 -68 -3 0
5 6 8 13 5 6 -2 21 -1 32 3 20 8 33 5 23 -5z"/>
<path d="M549 1500 c-16 -16 -15 -20 8 -46 15 -19 21 -22 15 -9 -5 11 -7 32
-6 48 2 15 2 27 1 26 -1 0 -9 -9 -18 -19z"/>
<path d="M3049 4526 c-1 -9 -2 -28 -3 -43 -1 -32 -22 -45 -49 -31 -10 5 -21 7
-25 4 -3 -3 0 -6 8 -6 10 0 10 -3 -1 -17 -11 -15 -11 -16 1 -5 8 6 19 12 25
12 5 -1 1 -9 -10 -18 -24 -22 -29 -40 -15 -57 6 -7 7 -15 3 -17 -4 -3 -1 -3 7
0 8 3 24 4 35 4 20 -1 20 -1 0 14 -11 8 -25 12 -32 10 -19 -8 -16 9 8 35 19
23 20 23 14 2 -4 -15 -1 -23 13 -27 12 -4 18 -15 18 -31 -2 -28 -22 -53 -33
-41 -4 4 -1 11 7 16 8 6 11 10 5 10 -5 0 -17 -5 -25 -10 -13 -9 -13 -11 0 -20
8 -5 22 -7 30 -5 13 4 15 -4 15 -43 -1 -47 -9 -72 -24 -72 -19 0 -19 41 1 54
14 10 16 16 8 21 -9 6 -9 10 1 16 10 6 8 8 -6 7 -11 0 -27 1 -35 4 -8 3 -11 3
-7 0 4 -2 2 -11 -5 -20 -10 -14 -10 -15 2 -4 8 6 19 12 24 12 6 -1 0 -10 -14
-21 -23 -19 -23 -22 -7 -34 21 -15 22 -26 2 -19 -8 4 -15 2 -15 -3 0 -9 14
-13 56 -15 26 -1 27 -26 3 -51 -18 -20 -49 -17 -49 4 0 8 4 8 13 2 8 -7 17 -4
29 8 16 17 16 18 0 17 -9 0 -24 1 -32 4 -8 3 -11 3 -7 0 4 -2 3 -10 -4 -18 -8
-10 -8 -18 0 -27 8 -10 7 -17 -1 -25 -9 -9 -9 -12 0 -12 7 0 12 -5 12 -11 0
-5 -4 -8 -8 -5 -4 2 -8 -12 -9 -31 -1 -28 2 -32 9 -20 11 21 37 22 44 2 4 -8
9 -13 13 -11 10 6 6 -42 -4 -51 -4 -5 -5 -2 0 5 6 12 3 12 -15 2 -12 -6 -27
-9 -34 -7 -7 3 -13 -1 -13 -8 0 -10 7 -11 24 -4 15 6 31 5 41 0 19 -11 19 -20
0 -32 -19 -13 -28 -11 -28 6 0 8 -4 15 -8 15 -13 0 -10 -30 2 -32 6 0 16 -2
21 -3 6 -2 15 -4 20 -5 6 -1 1 -5 -10 -9 -11 -5 -28 -4 -38 1 -10 5 -21 7 -25
4 -3 -3 0 -6 8 -6 10 0 10 -3 -1 -17 -11 -15 -11 -16 1 -5 8 6 19 12 25 12 5
-1 -1 -10 -14 -20 -13 -11 -17 -20 -10 -20 10 0 10 -3 1 -12 -7 -7 -12 -19
-11 -27 0 -11 4 -8 11 7 14 29 26 28 26 -3 0 -13 -3 -24 -7 -23 -21 2 -26 -7
-27 -47 0 -25 3 -45 8 -45 4 0 8 5 8 10 0 6 4 10 9 10 6 0 9 -9 8 -20 -1 -12
-7 -18 -14 -16 -17 7 -28 -13 -14 -27 7 -7 7 -14 0 -24 -8 -9 -8 -13 0 -13 6
0 11 -5 11 -11 0 -5 -4 -8 -8 -5 -4 2 -8 -11 -9 -30 -1 -30 1 -32 12 -18 16
22 44 12 42 -16 -1 -11 -6 -19 -12 -17 -5 2 -9 12 -7 22 2 10 -1 14 -7 10 -16
-9 -13 -32 5 -39 19 -7 37 2 29 14 -3 5 -1 11 4 14 4 3 8 -4 7 -17 -1 -26 -24
-38 -49 -25 -10 5 -21 7 -25 4 -3 -3 0 -6 8 -6 10 0 10 -3 -1 -17 -11 -15 -11
-16 1 -5 8 6 19 12 24 12 6 -1 2 -9 -9 -18 -24 -22 -29 -40 -15 -57 6 -7 7
-15 3 -17 -4 -3 -1 -3 7 0 8 3 24 4 35 4 20 -1 20 -1 0 14 -11 8 -25 12 -32
10 -19 -8 -16 9 8 35 19 23 20 23 14 2 -4 -15 -1 -23 13 -27 12 -4 18 -15 18
-31 -2 -28 -22 -53 -33 -41 -4 4 -1 11 7 16 8 6 11 10 5 10 -5 0 -17 -5 -25
-10 -13 -9 -13 -11 0 -20 8 -5 22 -7 30 -5 13 4 15 -4 15 -43 -1 -47 -9 -72
-24 -72 -19 0 -19 41 1 54 14 10 16 16 8 21 -9 6 -9 10 1 16 10 6 8 8 -6 7
-11 0 -27 1 -35 4 -8 3 -11 3 -7 0 4 -2 2 -11 -5 -20 -10 -14 -10 -15 2 -4 8
6 19 12 24 12 6 -1 0 -10 -14 -21 -23 -19 -23 -22 -7 -34 21 -15 22 -26 2 -19
-8 4 -15 2 -15 -3 0 -9 14 -13 55 -15 18 0 20 -7 20 -47 -1 -47 -9 -71 -26
-71 -5 0 -9 7 -9 15 0 8 -4 15 -10 15 -12 0 -9 -22 5 -32 6 -4 17 -5 25 -3 12
4 15 -4 15 -35 0 -26 -4 -40 -12 -40 -7 0 -13 5 -13 10 0 6 5 10 11 10 8 0 8
4 0 14 -9 11 -9 15 1 19 7 3 4 5 -7 5 -11 -1 -27 1 -35 4 -8 3 -11 3 -7 0 4
-2 2 -11 -5 -20 -10 -14 -10 -15 2 -4 8 6 19 12 24 12 6 -1 0 -10 -14 -21 -22
-19 -23 -22 -7 -30 22 -13 22 -30 0 -23 -14 5 -15 4 -4 -4 11 -8 11 -10 0 -14
-8 -3 -12 -8 -9 -11 3 -3 14 1 25 9 17 13 18 17 6 36 -11 17 -10 23 4 37 16
15 17 15 11 -4 -5 -20 5 -48 18 -46 19 3 17 -1 -11 -21 -30 -23 -33 -28 -33
-49 0 -5 -4 -8 -8 -5 -5 3 -9 -1 -9 -9 0 -10 4 -12 12 -5 9 7 16 6 25 -5 7 -8
18 -15 24 -15 13 0 15 -78 3 -97 -11 -18 -27 -16 -27 2 0 8 -5 15 -10 15 -12
0 -9 -22 5 -32 6 -4 17 -5 25 -3 12 4 15 -4 15 -35 0 -26 -4 -40 -12 -40 -7 0
-13 5 -13 10 0 6 5 10 11 10 8 0 8 4 0 14 -9 11 -9 15 1 19 7 3 4 5 -7 5 -11
-1 -27 1 -35 4 -8 3 -11 3 -7 0 4 -2 2 -11 -5 -20 -10 -14 -10 -15 2 -4 8 6
19 12 25 12 5 -1 -1 -10 -15 -21 -22 -19 -23 -22 -7 -30 22 -13 22 -30 0 -23
-14 5 -15 4 -4 -4 11 -8 11 -10 0 -14 -8 -3 -12 -8 -9 -11 3 -3 14 1 25 9 17
13 18 17 6 36 -11 17 -10 23 4 37 16 15 17 15 11 -4 -5 -20 5 -48 18 -46 19 3
17 -1 -11 -21 -30 -23 -33 -28 -33 -49 0 -5 -4 -8 -8 -5 -5 3 -9 -1 -9 -9 0
-10 4 -12 12 -5 9 7 16 6 25 -5 7 -8 18 -15 24 -15 13 0 15 -78 3 -97 -11 -18
-27 -16 -27 2 0 8 -5 15 -10 15 -12 0 -9 -22 5 -32 6 -4 17 -5 25 -3 12 4 15
-4 15 -35 0 -26 -4 -40 -12 -40 -7 0 -13 5 -13 10 0 6 5 10 11 10 8 0 8 4 0
14 -9 11 -9 15 1 19 7 3 4 5 -7 5 -11 -1 -27 1 -35 4 -8 3 -11 3 -7 0 4 -2 2
-11 -5 -20 -10 -14 -10 -15 2 -4 8 6 19 12 25 12 5 -1 -1 -10 -15 -21 -22 -19
-23 -22 -7 -30 22 -13 22 -30 0 -23 -14 5 -15 4 -4 -4 11 -8 11 -10 0 -14 -8
-3 -12 -8 -9 -11 3 -3 14 1 25 9 17 13 18 17 6 36 -11 17 -10 23 4 37 16 15
17 15 11 -4 -5 -20 5 -48 18 -46 19 3 17 -1 -11 -21 -30 -23 -33 -28 -33 -49
0 -5 -4 -8 -8 -5 -5 3 -9 -1 -9 -9 0 -10 4 -12 12 -5 9 7 16 6 25 -5 7 -8 18
-15 24 -15 13 0 15 -78 3 -97 -11 -18 -27 -16 -27 2 0 8 -5 15 -10 15 -12 0
-9 -22 5 -32 6 -4 17 -5 25 -3 12 4 15 -4 15 -35 0 -26 -4 -40 -12 -40 -7 0
-13 5 -13 10 0 6 5 10 11 10 8 0 8 4 0 14 -9 11 -9 15 1 19 7 3 4 5 -7 5 -11
-1 -27 1 -35 4 -8 3 -11 3 -7 0 4 -2 2 -11 -5 -20 -10 -14 -10 -15 2 -4 8 6
19 12 25 12 5 -1 -1 -10 -15 -21 -22 -19 -23 -22 -7 -30 22 -13 22 -30 0 -23
-14 5 -15 4 -4 -4 11 -8 11 -10 0 -14 -8 -3 -12 -8 -9 -11 3 -3 14 1 25 9 17
13 18 17 6 36 -11 17 -10 23 4 37 16 15 17 15 11 -4 -5 -20 5 -48 18 -46 19 3
17 -1 -11 -21 -30 -23 -33 -28 -33 -49 0 -5 -4 -8 -8 -5 -5 3 -9 -1 -9 -9 0
-10 4 -12 12 -5 9 7 16 6 25 -5 7 -8 18 -15 25 -15 17 0 13 -44 -5 -51 -8 -4
-23 -2 -33 3 -10 5 -21 7 -25 4 -3 -3 0 -6 8 -6 10 0 10 -3 -1 -18 -11 -14
-11 -15 1 -4 8 6 19 12 25 12 5 -1 1 -9 -10 -18 -24 -22 -29 -40 -15 -57 6 -7
7 -15 3 -17 -4 -3 -1 -3 7 0 8 3 24 4 35 4 20 -1 20 -1 0 14 -11 8 -25 12 -32
10 -19 -8 -16 9 8 35 19 23 20 23 14 2 -4 -15 -1 -23 13 -27 12 -4 18 -15 18
-31 -2 -28 -22 -53 -33 -41 -4 4 -1 11 7 16 8 6 11 10 5 10 -5 0 -17 -5 -25
-10 -13 -9 -13 -11 0 -20 8 -5 22 -7 30 -5 13 4 15 -4 15 -43 -1 -47 -9 -72
-24 -72 -19 0 -19 41 1 54 14 10 16 16 8 21 -9 6 -9 10 1 16 10 6 8 8 -6 7
-11 0 -27 1 -35 4 -8 3 -11 3 -7 0 4 -2 2 -11 -5 -20 -10 -14 -10 -15 2 -4 8
6 19 12 25 12 5 -1 -1 -10 -15 -21 -23 -19 -23 -22 -7 -34 21 -15 22 -26 2
-19 -8 4 -15 2 -15 -3 0 -9 14 -13 56 -15 26 -1 27 -26 3 -51 -18 -20 -49 -17
-49 4 0 8 4 8 13 2 8 -7 17 -4 29 8 16 17 16 18 0 17 -9 0 -24 1 -32 4 -8 3
-11 3 -7 0 4 -2 3 -10 -4 -18 -8 -10 -8 -18 0 -27 8 -10 7 -17 -1 -25 -9 -9
-9 -12 0 -12 7 0 12 -5 12 -11 0 -5 -4 -8 -8 -5 -4 2 -8 -12 -9 -31 -1 -28 2
-32 9 -20 11 21 37 22 44 2 4 -8 9 -13 13 -11 10 6 6 -42 -4 -51 -4 -5 -5 -2
0 5 6 12 3 12 -15 2 -12 -6 -27 -9 -34 -7 -7 3 -13 -1 -13 -8 0 -10 7 -11 24
-4 38 14 73 -12 41 -32 -19 -13 -28 -11 -28 6 0 8 -4 15 -8 15 -13 0 -10 -30
2 -32 6 0 16 -2 21 -3 6 -2 15 -4 20 -5 6 -1 1 -5 -10 -9 -11 -5 -28 -4 -38 1
-10 5 -21 7 -25 4 -3 -3 0 -6 8 -6 10 0 10 -3 -1 -17 -11 -15 -11 -16 1 -5 8
6 19 12 25 12 5 -1 -1 -10 -14 -20 -13 -11 -17 -20 -10 -20 10 0 10 -3 1 -12
-7 -7 -12 -19 -11 -28 0 -10 4 -7 11 8 14 29 26 28 26 -3 0 -13 -3 -24 -7 -23
-21 2 -26 -7 -27 -47 0 -25 3 -45 8 -45 4 0 8 5 8 10 0 6 4 10 9 10 6 0 9 -9
8 -20 -1 -12 -7 -18 -14 -16 -17 7 -27 -12 -14 -28 7 -9 7 -16 -1 -24 -9 -9
-9 -12 0 -12 7 0 12 -5 12 -11 0 -5 -4 -8 -8 -5 -4 2 -8 -11 -9 -30 -1 -30 1
-32 12 -18 16 22 44 12 42 -16 -1 -11 -6 -19 -12 -17 -5 2 -9 12 -7 22 2 10
-1 14 -7 10 -16 -9 -13 -32 5 -39 19 -7 37 2 29 14 -3 5 -1 11 4 14 4 3 8 -4
7 -17 -1 -26 -24 -38 -49 -25 -10 5 -21 7 -25 4 -3 -3 0 -6 8 -6 10 0 10 -3
-1 -17 -11 -15 -11 -16 1 -6 8 7 19 13 24 13 6 -1 2 -9 -9 -18 -24 -22 -29
-40 -15 -57 6 -7 7 -15 3 -17 -4 -3 -1 -3 7 0 8 3 24 4 35 4 20 -1 20 -1 0 14
-11 8 -25 12 -32 10 -19 -8 -16 9 8 35 19 23 20 23 14 2 -4 -15 -1 -23 13 -27
12 -4 18 -15 18 -31 -2 -28 -22 -53 -33 -41 -4 4 -1 11 7 16 8 6 11 10 5 10
-5 0 -17 -5 -25 -10 -13 -9 -13 -11 0 -20 8 -5 22 -7 30 -5 13 4 15 -4 15 -43
-1 -47 -9 -72 -24 -72 -19 0 -19 41 1 54 14 10 16 16 8 21 -9 6 -9 10 1 16 10
6 8 8 -6 7 -11 0 -27 1 -35 4 -8 3 -11 3 -7 0 4 -2 2 -11 -5 -20 -10 -14 -10
-15 2 -5 8 7 19 13 24 13 6 -1 0 -10 -14 -21 -23 -19 -23 -22 -7 -34 21 -15
22 -26 2 -19 -8 4 -15 2 -15 -3 0 -9 14 -13 55 -15 18 0 20 -7 20 -52 0 -40
-5 -55 -22 -69 -13 -10 -29 -14 -40 -10 -11 3 -7 -3 10 -17 15 -12 31 -20 34
-16 4 3 1 6 -5 6 -7 0 -12 5 -12 11 0 6 9 8 20 4 12 -4 20 -2 20 5 0 6 -4 8
-10 5 -5 -3 -10 -2 -10 4 0 5 24 9 55 8 59 -2 65 -7 38 -28 -15 -12 -16 -12
-10 4 4 11 3 16 -4 12 -5 -4 -8 -12 -6 -18 4 -13 37 -18 34 -5 -1 6 4 13 12
16 8 2 11 0 7 -6 -3 -6 -1 -14 5 -18 8 -4 9 -3 5 4 -4 7 -3 12 3 12 5 0 13 -4
16 -10 3 -5 12 -10 18 -10 7 0 -3 10 -20 21 -39 25 -41 29 -9 27 14 -1 22 -6
20 -10 -3 -4 0 -8 5 -8 6 0 11 5 11 10 0 6 4 10 10 10 5 0 9 -10 7 -21 -1 -14
4 -23 16 -24 9 -2 15 1 11 6 -7 13 10 11 23 -2 8 -8 14 -6 22 9 10 19 8 20
-19 17 -16 -2 -32 0 -35 5 -4 6 21 9 60 8 36 -1 65 -6 65 -10 0 -5 -4 -7 -9
-3 -15 9 -25 -15 -12 -28 9 -9 10 -7 5 7 -5 13 -4 17 3 13 6 -4 16 0 24 9 11
14 57 16 69 4 3 -3 15 -13 27 -24 22 -18 22 -18 17 8 -4 25 -2 26 41 26 29 0
45 5 46 13 1 6 2 395 3 862 2 731 4 850 16 847 10 -3 9 3 -4 17 -11 12 -17 22
-15 22 19 7 149 4 149 -2 0 -5 5 -9 11 -9 5 0 7 4 4 10 -3 6 -2 10 4 10 5 0
14 -7 19 -16 8 -14 11 -14 26 7 11 16 16 19 16 8 0 -8 -6 -21 -12 -28 -11 -11
-10 -12 2 -5 8 5 22 9 30 11 8 1 19 8 25 16 5 7 17 14 25 14 8 1 32 3 53 6 32
5 38 3 33 -10 -5 -12 -4 -13 7 -5 8 7 18 8 23 4 4 -4 3 1 -5 10 -11 14 -10 17
6 16 10 0 30 2 45 5 22 4 26 2 21 -11 -4 -13 -3 -14 5 -4 5 8 12 13 16 13 20
-3 26 0 20 10 -5 8 1 10 19 7 16 -3 24 -1 20 5 -4 6 2 8 15 5 12 -4 20 -3 17
2 -4 7 14 15 52 25 23 6 133 77 187 120 127 104 239 314 282 527 22 111 27
171 29 363 4 236 -6 340 -47 510 -6 28 -15 54 -20 59 -4 6 -8 17 -8 26 0 22
-64 153 -99 203 -115 162 -267 252 -516 303 -65 14 -163 18 -532 21 -410 4
-453 3 -454 -11z m-4 -96 c3 -5 2 -10 -4 -10 -5 0 -13 5 -16 10 -3 6 -2 10 4
10 5 0 13 -4 16 -10z m5 -24 c0 -11 -19 -15 -25 -6 -3 5 1 10 9 10 9 0 16 -2
16 -4z m-40 -161 c-7 -8 -17 -15 -23 -15 -5 0 -2 9 8 20 21 23 35 19 15 -5z
m35 -160 c0 -53 -6 -67 -21 -44 -3 6 -15 9 -25 6 -20 -5 -26 7 -9 18 6 4 8 15
5 26 -4 13 -2 19 8 19 8 0 20 7 27 15 7 8 13 15 14 15 1 0 1 -25 1 -55z m603
-15 c10 -13 14 -13 27 4 11 15 15 16 15 5 0 -34 -42 -44 -62 -15 -5 7 -8 7 -8
-2 0 -7 10 -17 23 -22 18 -7 27 -3 50 23 30 34 37 26 10 -13 -13 -20 -14 -22
-2 -13 9 7 19 9 23 5 4 -4 7 -2 6 3 -6 28 1 35 28 29 15 -3 34 -6 43 -6 9 0
22 -10 29 -23 12 -23 14 -23 26 -7 11 14 16 15 31 4 10 -6 28 -16 40 -22 24
-10 26 -47 5 -73 -9 -10 -8 -18 4 -33 14 -18 14 -18 3 5 -10 21 -9 23 4 18 12
-4 14 -2 10 10 -5 12 -3 14 8 8 12 -8 12 -6 0 9 -9 11 -11 20 -4 27 11 11 58
-25 58 -44 0 -7 5 -12 12 -12 6 0 15 -4 20 -9 5 -5 3 -6 -4 -2 -8 4 -14 2 -15
-6 0 -7 -2 -17 -2 -23 -3 -21 -17 -34 -31 -28 -8 3 -15 0 -15 -6 0 -6 6 -10
13 -9 6 2 11 -3 9 -9 -1 -7 3 -13 9 -13 6 0 8 7 5 16 -4 11 -1 14 12 10 21 -7
49 8 33 18 -6 4 -11 2 -11 -3 0 -6 -4 -11 -9 -11 -5 0 -8 11 -8 25 0 45 25 26
57 -41 16 -36 30 -72 30 -79 0 -8 5 -17 10 -20 6 -4 8 -11 5 -16 -4 -5 -3 -15
2 -21 8 -13 12 -43 16 -110 1 -21 6 -38 10 -38 5 0 5 -5 1 -11 -5 -8 -9 -8
-14 1 -5 8 -10 9 -14 2 -3 -6 3 -13 14 -17 l20 -6 -20 -29 c-17 -24 -18 -29
-4 -34 8 -3 12 -2 9 4 -3 5 -2 17 3 27 7 12 9 -4 8 -51 -1 -37 2 -70 6 -72 5
-3 4 -13 -1 -22 -4 -9 -6 -23 -4 -29 6 -16 -12 -17 -37 -1 -16 10 -22 10 -32
-1 -11 -11 -11 -13 0 -7 13 8 72 -14 72 -26 0 -12 -13 -9 -37 7 -19 13 -22 13
-27 -1 -3 -9 -3 -20 0 -25 3 -6 0 -16 -6 -24 -9 -11 -9 -15 -1 -15 6 0 11 6
12 13 0 9 2 9 6 -1 3 -7 -3 -20 -13 -28 -18 -14 -18 -14 -1 -8 17 6 18 5 6
-14 -7 -11 -18 -18 -24 -15 -5 4 -2 -3 9 -15 16 -19 17 -24 5 -39 -8 -10 -18
-22 -24 -26 -5 -5 1 -5 15 -2 l25 7 -27 -26 c-32 -31 -35 -38 -11 -29 9 4 14
2 10 -3 -3 -6 -1 -16 4 -24 7 -11 8 -6 4 16 -5 33 17 66 30 44 3 -5 1 -10 -4
-10 -6 0 -11 -5 -11 -11 0 -5 4 -8 9 -5 5 4 1 -12 -10 -34 -11 -22 -24 -40
-30 -40 -6 0 -8 -4 -5 -9 7 -10 -20 -48 -29 -40 -3 4 1 14 10 22 14 14 13 16
-4 14 -15 -1 -18 -7 -15 -29 3 -28 -10 -38 -20 -15 -3 6 -4 3 -3 -9 1 -11 -2
-21 -6 -22 -5 0 -16 -9 -25 -19 -43 -48 -212 -93 -349 -93 l-48 0 1 633 c1
347 2 638 3 645 0 7 6 10 13 6 7 -5 9 -2 5 8 -7 20 23 19 41 -2z m22 10 c0 -5
-5 -10 -11 -10 -5 0 -7 5 -4 10 3 6 8 10 11 10 2 0 4 -4 4 -10z m180 -30 c0
-5 -2 -10 -4 -10 -3 0 -8 5 -11 10 -3 6 -1 10 4 10 6 0 11 -4 11 -10z m-804
-182 c-1 -7 -5 -19 -9 -25 -5 -8 -3 -13 5 -14 10 0 10 -2 1 -6 -7 -2 -13 -9
-13 -14 0 -6 6 -7 13 -3 10 6 10 4 0 -7 -15 -15 -18 -33 -5 -25 5 3 9 -1 9 -9
0 -8 -4 -15 -9 -15 -4 0 -8 5 -8 11 0 5 -5 7 -11 3 -8 -4 -4 -11 10 -18 12 -7
19 -15 15 -19 -4 -3 -16 -2 -27 4 -12 7 -17 7 -13 1 3 -5 -1 -12 -8 -15 -10
-4 -14 1 -13 14 1 10 5 19 9 19 4 0 5 7 1 15 -3 10 -1 15 8 13 19 -4 22 52 3
59 -13 5 -13 8 2 24 19 22 43 25 40 7z m-6 -158 c10 -6 11 -10 3 -10 -7 0 -13
-5 -13 -11 0 -5 5 -7 10 -4 16 10 11 -4 -9 -27 -20 -21 -51 -19 -51 3 0 9 3 9
14 0 16 -14 24 0 21 37 -2 24 3 26 25 12z m5 -105 c0 -53 -6 -67 -21 -44 -3 6
-15 9 -25 6 -20 -5 -26 7 -9 18 6 4 8 15 5 26 -4 13 -2 19 8 19 8 0 20 7 27
15 7 8 13 15 14 15 1 0 1 -25 1 -55z m0 -135 c3 -5 2 -10 -4 -10 -5 0 -13 5
-16 10 -3 6 -2 10 4 10 5 0 13 -4 16 -10z m5 -24 c0 -11 -19 -15 -25 -6 -3 5
1 10 9 10 9 0 16 -2 16 -4z m-40 -161 c-7 -8 -17 -15 -23 -15 -5 0 -2 9 8 20
21 23 35 19 15 -5z m1140 -16 l25 -20 -25 6 c-22 6 -23 6 -8 -6 19 -16 19 -96
-1 -91 -6 1 -11 -3 -11 -9 0 -8 -5 -7 -15 1 -13 11 -14 16 -2 34 15 22 15 59
2 89 -10 23 4 21 35 -4z m-6 -144 c-4 -8 -11 -12 -18 -8 -6 4 -5 -1 3 -10 7
-9 9 -17 3 -17 -5 0 -15 6 -21 14 -10 11 -8 17 6 25 25 15 33 13 27 -4z
m-1102 -147 c-9 -9 -9 -15 1 -27 10 -12 9 -14 -5 -8 -10 3 -18 2 -18 -3 0 -6
8 -10 17 -10 13 0 14 -3 5 -12 -16 -16 -43 8 -34 30 8 22 25 41 37 42 5 0 4
-5 -3 -12z m0 -320 c-9 -9 -9 -15 1 -27 10 -12 9 -14 -5 -8 -10 3 -18 2 -18
-3 0 -6 8 -10 17 -10 13 0 14 -3 5 -12 -16 -16 -43 8 -34 30 8 22 25 41 37 42
5 0 4 -5 -3 -12z m0 -320 c-9 -9 -9 -15 1 -27 10 -12 9 -14 -5 -8 -10 3 -18 2
-18 -3 0 -6 8 -10 17 -10 13 0 14 -3 5 -12 -16 -16 -43 8 -34 30 8 22 25 41
37 42 5 0 4 -5 -3 -12z m743 -18 c3 -5 1 -10 -4 -10 -6 0 -11 5 -11 10 0 6 2
10 4 10 3 0 8 -4 11 -10z m65 -1 c0 -4 -7 -9 -15 -13 -9 -3 -15 0 -15 8 0 7 7
13 15 13 8 0 15 -4 15 -8z m-808 -301 c-9 -9 -9 -15 1 -27 10 -12 9 -14 -5 -8
-10 3 -18 2 -18 -3 0 -6 8 -10 17 -10 13 0 14 -3 5 -12 -16 -16 -43 8 -34 30
8 22 25 41 37 42 5 0 4 -5 -3 -12z m3 -148 c3 -5 2 -10 -4 -10 -5 0 -13 5 -16
10 -3 6 -2 10 4 10 5 0 13 -4 16 -10z m5 -24 c0 -11 -19 -15 -25 -6 -3 5 1 10
9 10 9 0 16 -2 16 -4z m-40 -161 c-7 -8 -17 -15 -23 -15 -5 0 -2 9 8 20 21 23
35 19 15 -5z m35 -160 c0 -53 -6 -67 -21 -44 -3 6 -15 9 -25 6 -20 -5 -26 7
-9 18 6 4 8 15 5 26 -4 13 -2 19 8 19 8 0 20 7 27 15 7 8 13 15 14 15 1 0 1
-25 1 -55z m1 -217 c-1 -7 -5 -19 -9 -25 -5 -8 -3 -13 5 -14 10 0 10 -2 1 -6
-7 -2 -13 -9 -13 -14 0 -6 6 -7 13 -3 10 6 10 4 0 -7 -15 -15 -18 -33 -5 -25
5 3 9 -1 9 -9 0 -8 -4 -15 -9 -15 -4 0 -8 5 -8 11 0 5 -5 7 -11 3 -8 -4 -4
-11 10 -18 12 -7 19 -15 15 -19 -4 -3 -16 -2 -27 4 -12 7 -17 7 -13 1 3 -5 -1
-12 -8 -15 -10 -4 -14 1 -13 14 1 10 5 19 9 19 4 0 5 7 1 15 -3 10 -1 15 8 13
19 -4 22 52 3 59 -13 5 -13 8 2 24 19 22 43 25 40 7z m-6 -158 c10 -6 11 -10
3 -10 -7 0 -13 -5 -13 -11 0 -5 5 -7 10 -4 16 10 11 -4 -9 -27 -20 -21 -51
-19 -51 3 0 9 3 9 14 0 16 -14 24 0 21 37 -2 24 3 26 25 12z m5 -105 c0 -53
-6 -67 -21 -44 -3 6 -15 9 -25 6 -20 -5 -26 7 -9 18 6 4 8 15 5 26 -4 13 -2
19 8 19 8 0 20 7 27 15 7 8 13 15 14 15 1 0 1 -25 1 -55z m0 -135 c3 -5 2 -10
-4 -10 -5 0 -13 5 -16 10 -3 6 -2 10 4 10 5 0 13 -4 16 -10z m5 -24 c0 -11
-19 -15 -25 -6 -3 5 1 10 9 10 9 0 16 -2 16 -4z m-40 -161 c-7 -8 -17 -15 -23
-15 -5 0 -2 9 8 20 21 23 35 19 15 -5z m474 -191 c5 -14 4 -15 -9 -4 -17 14
-19 20 -6 20 5 0 12 -7 15 -16z m-234 -8 c0 -3 -4 -8 -10 -11 -5 -3 -10 -1
-10 4 0 6 5 11 10 11 6 0 10 -2 10 -4z m40 -6 c0 -5 -2 -10 -4 -10 -3 0 -8 5
-11 10 -3 6 -1 10 4 10 6 0 11 -4 11 -10z"/>
<path d="M3014 4080 c0 -11 5 -21 12 -24 7 -3 9 5 6 20 -5 29 -18 32 -18 4z"/>
<path d="M3744 4057 c3 -10 6 -21 6 -23 0 -9 29 -3 36 8 5 8 2 9 -9 5 -10 -4
-21 1 -27 11 -11 16 -11 15 -6 -1z"/>
<path d="M3801 4048 c-1 -9 -9 -22 -18 -27 -10 -6 -13 -11 -6 -11 6 0 14 4 18
10 3 5 13 7 23 4 10 -4 13 -3 6 3 -6 4 -14 15 -17 23 -4 12 -6 12 -6 -2z"/>
<path d="M3887 4023 c6 -16 5 -16 -10 -4 -25 20 -20 5 7 -22 14 -14 27 -22 30
-19 12 11 5 -15 -6 -28 -11 -12 -10 -12 5 0 10 7 16 19 13 25 -2 7 0 17 5 22
6 6 4 10 -5 10 -8 0 -12 -5 -9 -10 3 -5 0 -7 -8 -5 -8 3 -13 12 -11 21 1 8 -2
18 -8 22 -6 4 -7 -1 -3 -12z"/>
<path d="M3718 4023 c7 -3 16 -2 19 1 4 3 -2 6 -13 5 -11 0 -14 -3 -6 -6z"/>
<path d="M3820 4001 c0 -5 8 -8 18 -7 10 0 16 -5 14 -13 -2 -8 3 -11 13 -8 10
4 15 0 16 -11 0 -12 2 -13 6 -3 3 8 -5 22 -18 32 -26 20 -49 25 -49 10z"/>
<path d="M3971 3973 c8 -13 20 -23 28 -23 8 0 12 1 10 3 -2 1 -15 11 -28 22
l-24 20 14 -22z"/>
<path d="M3967 3926 c-3 -8 2 -21 12 -30 20 -19 31 -20 31 -5 0 5 -4 7 -10 4
-5 -3 -10 -1 -10 4 0 6 5 11 10 11 6 0 10 5 10 12 0 9 -3 9 -12 0 -17 -17 -33
-15 -18 3 7 9 8 15 2 15 -5 0 -12 -6 -15 -14z"/>
<path d="M4060 3843 c1 -18 18 -35 24 -24 4 6 2 11 -4 11 -6 0 -8 5 -5 10 3 6
1 10 -4 10 -6 0 -11 -3 -11 -7z"/>
<path d="M4021 3821 c-9 -6 -10 -11 -2 -15 6 -4 8 -12 5 -18 -4 -7 -2 -8 4 -4
6 4 8 14 5 24 -6 15 -5 15 10 3 15 -12 17 -12 11 3 -7 18 -13 19 -33 7z"/>
<path d="M4094 3790 c7 -24 7 -25 -9 -5 -14 16 -16 17 -13 3 2 -9 -6 -24 -17
-32 -12 -10 -14 -14 -4 -11 8 3 24 -3 34 -15 10 -11 13 -20 7 -20 -6 0 -14 5
-17 10 -9 15 -22 12 -22 -5 0 -8 4 -12 9 -9 12 8 39 -16 32 -27 -3 -5 -10 -9
-15 -9 -6 0 -7 5 -4 10 3 6 1 10 -5 10 -7 0 -10 -6 -7 -12 2 -7 12 -12 21 -12
21 2 20 -10 -1 -32 -16 -16 -16 -16 4 -10 23 7 35 -5 40 -38 3 -15 1 -16 -11
-7 -11 9 -15 8 -20 -5 -8 -21 -8 -21 10 -28 14 -6 15 -4 3 10 -11 13 -11 15 2
14 33 -5 42 -1 29 15 -7 8 -9 15 -5 15 4 0 1 8 -6 17 -12 15 -12 16 4 10 11
-4 16 -3 12 4 -4 6 -13 8 -21 5 -7 -3 -16 -1 -19 4 -4 6 2 10 11 10 16 0 16 1
-2 14 -18 14 -18 15 -1 21 9 4 17 12 17 17 0 6 -6 5 -15 -2 -21 -17 -19 4 2
26 16 16 16 16 -4 10 -23 -7 -52 17 -33 29 5 3 10 1 10 -4 0 -6 4 -11 9 -11
11 0 7 47 -4 58 -4 4 -4 -4 -1 -18z"/>
<path d="M4040 3775 c-11 -13 -10 -14 4 -9 9 3 16 10 16 15 0 13 -6 11 -20 -6z"/>
<path d="M4085 3599 c-11 -16 -1 -19 13 -3 7 8 8 14 3 14 -5 0 -13 -5 -16 -11z"/>
<path d="M4110 3516 c16 -16 12 -30 -5 -16 -10 9 -15 9 -15 1 0 -6 4 -11 9
-11 17 0 19 -40 3 -50 -10 -5 -12 -10 -5 -10 6 0 15 5 18 10 8 14 26 13 23 -1
-2 -6 4 -14 12 -16 13 -4 13 -3 0 6 -8 6 -10 11 -5 11 6 0 1 7 -9 15 -17 13
-18 18 -8 40 16 34 15 34 -8 32 -13 -1 -16 -5 -10 -11z"/>
<path d="M4105 3410 c-7 -12 -8 -11 30 -16 28 -3 29 -2 11 12 -23 17 -33 18
-41 4z"/>
<path d="M4103 3374 c9 -11 14 -24 10 -27 -3 -4 -1 -7 5 -7 7 0 12 6 12 14 0
8 3 16 8 19 4 2 1 2 -7 0 -7 -2 -21 2 -30 9 -13 10 -12 8 2 -8z"/>
<path d="M4150 3355 c-11 -13 -11 -18 0 -28 10 -9 11 -9 6 1 -4 7 -2 19 4 27
7 8 10 15 7 15 -2 0 -10 -7 -17 -15z"/>
<path d="M4060 3021 c0 -6 0 -14 1 -17 0 -4 -5 -11 -13 -16 -11 -8 -11 -9 0
-6 8 2 13 7 12 12 -1 5 4 12 10 16 9 5 9 9 1 14 -6 4 -11 2 -11 -3z"/>
<path d="M3017 3856 c-4 -10 -1 -13 8 -9 8 3 12 9 9 14 -7 12 -11 11 -17 -5z"/>
<path d="M3014 3600 c0 -11 5 -21 12 -24 7 -3 9 5 6 20 -5 29 -18 32 -18 4z"/>
<path d="M4120 3186 c0 -2 7 -9 15 -16 13 -11 14 -10 9 4 -5 14 -24 23 -24 12z"/>
<path d="M3014 1520 c0 -11 5 -21 12 -24 7 -3 9 5 6 20 -5 29 -18 32 -18 4z"/>
<path d="M3017 1296 c-4 -10 -1 -13 8 -9 8 3 12 9 9 14 -7 12 -11 11 -17 -5z"/>
<path d="M3014 1040 c0 -11 5 -21 12 -24 7 -3 9 5 6 20 -5 29 -18 32 -18 4z"/>
<path d="M2996 4482 c-9 -15 26 -25 38 -11 8 9 7 10 -3 4 -7 -4 -16 -2 -21 5
-5 8 -10 8 -14 2z"/>
<path d="M839 4323 c-13 -16 -12 -17 4 -4 9 7 17 15 17 17 0 8 -8 3 -21 -13z"/>
<path d="M3025 4229 c-4 -6 -5 -12 -2 -15 2 -3 7 2 10 11 7 17 1 20 -8 4z"/>
<path d="M730 4200 c0 -5 5 -10 11 -10 5 0 7 5 4 10 -3 6 -8 10 -11 10 -2 0
-4 -4 -4 -10z"/>
<path d="M690 4140 c0 -5 0 -13 1 -16 0 -4 -5 -10 -12 -15 -8 -4 -10 -11 -6
-15 4 -4 9 -5 12 -2 8 8 17 58 10 58 -3 0 -5 -4 -5 -10z"/>
<path d="M1470 4085 c0 -8 4 -15 10 -15 5 0 7 7 4 15 -4 8 -8 15 -10 15 -2 0
-4 -7 -4 -15z"/>
<path d="M1495 4090 c3 -5 8 -10 11 -10 2 0 4 5 4 10 0 6 -5 10 -11 10 -5 0
-7 -4 -4 -10z"/>
<path d="M1529 4078 l-24 -20 27 16 c35 21 44 20 27 -1 -7 -10 -9 -15 -5 -11
5 4 15 3 23 -3 9 -9 13 -8 13 0 0 6 -5 11 -11 11 -5 0 -7 5 -3 12 5 8 11 6 20
-7 12 -16 13 -16 12 2 -2 26 -48 26 -79 1z"/>
<path d="M1640 4080 c0 -5 5 -10 11 -10 5 0 7 5 4 10 -3 6 -8 10 -11 10 -2 0
-4 -4 -4 -10z"/>
<path d="M662 4073 c-10 -4 -10 -8 -1 -19 9 -11 6 -16 -12 -23 -15 -6 -18 -10
-8 -10 9 -1 24 9 35 21 10 12 13 18 5 13 -11 -6 -13 -4 -8 8 3 10 5 17 4 16
-1 0 -8 -3 -15 -6z"/>
<path d="M2985 4004 c-9 -15 -12 -23 -6 -20 6 4 11 2 11 -3 0 -7 7 -7 20 1 11
7 20 17 20 22 0 6 -5 5 -12 -2 -17 -17 -33 -15 -18 3 7 9 11 18 8 21 -3 2 -13
-7 -23 -22z"/>
<path d="M616 3993 c-6 -14 -5 -15 5 -6 7 7 10 15 7 18 -3 3 -9 -2 -12 -12z"/>
<path d="M645 4000 c-3 -5 -1 -10 4 -10 6 0 11 5 11 10 0 6 -2 10 -4 10 -3 0
-8 -4 -11 -10z"/>
<path d="M1790 3979 c0 -5 5 -7 10 -4 6 3 10 8 10 11 0 2 -4 4 -10 4 -5 0 -10
-5 -10 -11z"/>
<path d="M623 3972 c-8 -5 -8 -12 2 -25 11 -16 13 -16 19 -2 4 11 2 14 -6 9
-8 -5 -9 -2 -5 9 7 19 7 20 -10 9z"/>
<path d="M1806 3928 c-19 -24 -22 -36 -14 -45 6 -8 13 -11 17 -8 3 3 -1 10 -9
15 -10 7 -11 10 -2 10 6 0 12 7 12 16 0 10 6 14 14 11 11 -4 13 -1 9 10 -5 12
-3 14 7 8 9 -5 11 -4 6 3 -10 17 -12 16 -40 -20z"/>
<path d="M607 3934 c5 -13 3 -15 -8 -9 -11 6 -12 5 -1 -6 17 -18 15 -26 -7
-32 -12 -3 -18 -12 -17 -23 2 -11 -1 -25 -7 -31 -18 -23 -1 -14 31 17 18 17
28 30 23 30 -5 0 -7 13 -5 30 2 16 -1 32 -6 35 -6 4 -7 -1 -3 -11z m3 -58 c0
-2 -6 -9 -13 -15 -10 -8 -14 -7 -14 4 0 8 6 15 14 15 7 0 13 -2 13 -4z"/>
<path d="M1767 3929 c6 -23 9 -24 16 -5 3 8 0 17 -7 19 -10 4 -12 -1 -9 -14z"/>
<path d="M1846 3914 c-3 -8 -10 -12 -16 -9 -5 3 -10 1 -10 -4 0 -15 11 -13 33
3 10 8 14 17 9 20 -6 3 -13 -1 -16 -10z"/>
<path d="M553 3756 c-1 -33 0 -33 19 -14 11 11 18 21 16 22 -1 1 -10 7 -18 13
-13 10 -16 7 -17 -21z"/>
<path d="M550 3701 c0 -7 -5 -9 -11 -5 -7 4 -7 -1 1 -16 10 -19 10 -22 -2 -17
-12 4 -14 -2 -12 -24 2 -17 0 -28 -4 -25 -13 8 -10 -19 3 -31 10 -9 12 -4 10
20 -2 36 12 60 29 50 6 -4 5 1 -3 10 -8 10 -11 21 -7 24 4 4 11 1 16 -7 6 -8
10 -10 10 -4 0 6 -7 17 -15 24 -11 9 -15 9 -15 1z"/>
<path d="M553 3615 c0 -30 6 -28 12 4 2 11 0 21 -4 21 -5 0 -8 -11 -8 -25z"/>
<path d="M502 3575 c4 -4 3 -16 -3 -26 -5 -11 -7 -19 -5 -19 3 0 10 9 16 19 7
15 7 22 -2 27 -7 4 -10 4 -6 -1z"/>
<path d="M485 3420 c3 -5 8 -10 11 -10 2 0 4 5 4 10 0 6 -5 10 -11 10 -5 0 -7
-4 -4 -10z"/>
<path d="M514 3302 c-10 -14 -13 -15 -28 -3 -9 7 -16 9 -16 4 0 -12 50 -36 58
-28 3 3 0 5 -8 5 -10 0 -10 3 0 15 7 9 11 17 9 20 -3 2 -10 -4 -15 -13z"/>
<path d="M470 3271 c0 -5 7 -11 15 -15 8 -3 15 -1 15 3 0 5 -7 11 -15 15 -8 3
-15 1 -15 -3z"/>
<path d="M3025 3269 c-4 -6 -5 -12 -2 -15 2 -3 7 2 10 11 7 17 1 20 -8 4z"/>
<path d="M511 3247 c-1 -10 -7 -17 -13 -16 -25 3 -38 -1 -38 -12 0 -8 4 -8 14
1 12 9 15 8 13 -9 -1 -13 -6 -19 -14 -17 -7 3 -10 -1 -6 -10 4 -11 9 -12 19
-3 11 9 14 9 14 0 0 -6 -7 -14 -15 -17 -8 -4 -15 -10 -15 -16 0 -5 5 -6 10 -3
6 3 10 2 10 -4 0 -5 -5 -12 -10 -14 -6 -3 -5 -4 2 -3 7 2 13 10 13 20 0 9 6
20 13 25 10 6 10 10 -3 21 -14 12 -14 15 1 31 9 10 14 24 11 31 -4 8 -6 6 -6
-5z"/>
<path d="M2983 3212 c4 -2 2 -11 -5 -20 -8 -10 -9 -13 -1 -9 6 4 13 3 15 -2 1
-6 14 -1 28 9 23 17 23 19 5 18 -11 0 -27 1 -35 4 -8 3 -11 3 -7 0z"/>
<path d="M3017 3169 c-10 -6 -24 -8 -31 -6 -7 3 -13 -1 -13 -8 0 -10 7 -11 24
-4 32 12 33 12 26 -8 -3 -10 -3 -15 1 -12 6 6 18 49 13 49 -1 0 -10 -5 -20
-11z"/>
<path d="M455 3109 c4 -5 1 -18 -6 -27 -11 -13 -8 -12 9 2 26 23 26 22 6 30
-9 3 -12 2 -9 -5z"/>
<path d="M500 3110 c-9 -6 -10 -10 -3 -10 6 0 15 5 18 10 8 12 4 12 -15 0z"/>
<path d="M465 3070 c-10 -11 -15 -20 -11 -20 4 0 2 -10 -4 -22 -11 -22 -10
-22 8 1 13 16 25 22 36 18 10 -4 15 -3 11 3 -3 6 -13 10 -21 10 -8 0 -13 4 -9
10 3 5 13 6 22 3 11 -4 14 -3 9 5 -10 17 -20 15 -41 -8z"/>
<path d="M462 3010 c-7 -11 -8 -20 -3 -20 5 0 12 7 15 16 3 8 10 12 16 9 5 -3
10 -1 10 4 0 18 -24 12 -38 -9z"/>
<path d="M486 2987 c3 -10 9 -15 12 -12 3 3 0 11 -7 18 -10 9 -11 8 -5 -6z"/>
<path d="M444 2959 c0 -18 22 -15 29 5 3 6 -3 12 -12 12 -9 0 -17 -8 -17 -17z"/>
<path d="M2990 2899 c0 -5 -4 -8 -8 -5 -4 2 -8 -4 -8 -14 0 -10 4 -16 8 -14 4
3 8 0 8 -5 0 -7 7 -7 20 1 11 7 20 15 20 18 0 3 -9 11 -20 18 -13 8 -20 8 -20
1z m20 -19 c0 -5 -4 -10 -10 -10 -5 0 -10 5 -10 10 0 6 5 10 10 10 6 0 10 -4
10 -10z"/>
<path d="M3017 2849 c-10 -6 -24 -8 -31 -6 -7 3 -13 -1 -13 -8 0 -10 7 -11 24
-4 32 12 33 12 26 -8 -3 -10 -3 -15 1 -12 6 6 18 49 13 49 -1 0 -10 -5 -20
-11z"/>
<path d="M467 2816 c-23 -21 -24 -25 -8 -23 11 1 17 5 15 9 -3 4 -1 8 4 8 6 0
12 7 16 15 7 20 3 19 -27 -9z"/>
<path d="M430 2666 c0 -2 7 -6 15 -10 8 -3 15 -1 15 4 0 6 -7 10 -15 10 -8 0
-15 -2 -15 -4z"/>
<path d="M445 2632 c-5 -4 -12 -16 -13 -27 -4 -23 0 -20 17 13 12 24 12 26 -4
14z"/>
<path d="M463 2611 c-10 -16 -9 -20 4 -25 9 -4 21 -2 27 4 8 8 6 9 -6 5 -11
-4 -18 -2 -18 4 0 6 5 11 10 11 6 0 10 5 10 10 0 16 -14 11 -27 -9z"/>
<path d="M2990 2579 c0 -5 -4 -8 -8 -5 -4 2 -8 -4 -8 -14 0 -10 4 -16 8 -14 4
3 8 0 8 -5 0 -7 7 -7 20 1 11 7 20 15 20 18 0 3 -9 11 -20 18 -13 8 -20 8 -20
1z m20 -19 c0 -5 -4 -10 -10 -10 -5 0 -10 5 -10 10 0 6 5 10 10 10 6 0 10 -4
10 -10z"/>
<path d="M3017 2529 c-10 -6 -24 -8 -31 -6 -7 3 -13 -1 -13 -8 0 -10 7 -11 24
-4 32 12 33 12 26 -8 -3 -10 -3 -15 1 -12 6 6 18 49 13 49 -1 0 -10 -5 -20
-11z"/>
<path d="M1470 2472 c0 -4 5 -13 11 -19 11 -11 3 -37 -9 -29 -4 2 -7 -7 -7
-20 0 -31 1 -30 20 6 12 23 13 35 5 50 -11 21 -20 26 -20 12z"/>
<path d="M1505 2420 c-3 -5 -1 -18 4 -28 8 -15 5 -27 -14 -53 -28 -37 -29 -39
-15 -39 6 0 10 7 10 16 0 10 6 14 14 11 11 -4 13 -1 9 10 -4 9 -2 14 3 10 11
-7 13 38 2 49 -12 11 -10 26 2 19 6 -3 10 -1 10 4 0 14 -17 14 -25 1z"/>
<path d="M432 2395 c2 -11 8 -23 13 -27 7 -5 7 -10 0 -15 -5 -5 -11 -17 -13
-28 -2 -15 1 -13 13 8 14 24 14 30 0 55 -12 20 -15 22 -13 7z"/>
<path d="M1480 2375 c-7 -8 -9 -15 -5 -15 4 0 1 -8 -6 -17 -13 -16 -12 -17 3
-4 10 7 16 17 13 21 -3 5 1 10 7 13 7 2 10 7 7 11 -3 4 -12 0 -19 -9z"/>
<path d="M4016 2331 c-4 -5 3 -7 14 -4 23 6 26 13 6 13 -8 0 -17 -4 -20 -9z"/>
<path d="M3866 2303 c-6 -14 -5 -15 5 -6 7 7 10 15 7 18 -3 3 -9 -2 -12 -12z"/>
<path d="M3895 2310 c-3 -5 -1 -10 4 -10 6 0 11 5 11 10 0 6 -2 10 -4 10 -3 0
-8 -4 -11 -10z"/>
<path d="M3595 2300 c3 -5 8 -10 11 -10 2 0 4 5 4 10 0 6 -5 10 -11 10 -5 0
-7 -4 -4 -10z"/>
<path d="M3625 2299 c-4 -6 -5 -12 -2 -15 2 -3 7 2 10 11 7 17 1 20 -8 4z"/>
<path d="M3650 2306 c0 -2 7 -9 15 -16 13 -11 14 -10 9 4 -5 14 -24 23 -24 12z"/>
<path d="M3705 2302 c-10 -7 -18 -32 -10 -32 2 0 9 9 15 20 12 22 11 24 -5 12z"/>
<path d="M453 2275 c20 -20 31 -25 38 -18 13 13 2 36 -14 30 -7 -2 -21 0 -32
6 -14 7 -12 2 8 -18z m37 -5 c0 -5 -4 -10 -10 -10 -5 0 -10 5 -10 10 0 6 5 10
10 10 6 0 10 -4 10 -10z"/>
<path d="M436 2261 c-4 -6 -2 -11 5 -11 8 0 8 -5 -2 -17 -11 -15 -11 -16 0 -6
7 6 21 9 30 6 13 -4 13 -3 2 5 -7 5 -17 15 -21 22 -5 9 -9 9 -14 1z"/>
<path d="M1473 2257 c20 -17 22 -33 5 -40 -10 -4 -10 -6 -1 -6 7 -1 17 7 22
18 8 15 5 20 -17 30 -24 10 -25 10 -9 -2z"/>
<path d="M2990 2259 c0 -5 -4 -8 -8 -5 -4 2 -8 -4 -8 -14 0 -10 4 -16 8 -14 4
3 8 0 8 -5 0 -7 7 -7 20 1 11 7 20 15 20 18 0 3 -9 11 -20 18 -13 8 -20 8 -20
1z m20 -19 c0 -5 -4 -10 -10 -10 -5 0 -10 5 -10 10 0 6 5 10 10 10 6 0 10 -4
10 -10z"/>
<path d="M1509 2222 c-15 -27 -15 -30 0 -39 9 -6 13 -14 9 -18 -3 -4 -16 3
-27 14 -23 23 -28 16 -8 -9 14 -17 67 -24 67 -9 0 6 -4 7 -10 4 -11 -7 -13 3
-12 53 1 17 1 32 -1 32 -1 0 -9 -13 -18 -28z"/>
<path d="M3017 2209 c-10 -6 -24 -8 -31 -6 -7 3 -13 -1 -13 -8 0 -10 7 -11 24
-4 32 12 33 12 26 -8 -3 -10 -3 -15 1 -12 6 6 18 49 13 49 -1 0 -10 -5 -20
-11z"/>
<path d="M1661 2158 c-13 -22 -13 -22 4 -8 10 8 20 14 22 13 1 -2 9 -3 16 -3
8 0 7 4 -3 10 -21 14 -23 13 -39 -12z"/>
<path d="M1727 2162 c3 -7 8 -10 11 -8 3 3 12 0 21 -7 14 -11 14 -10 2 6 -8
10 -9 17 -3 17 6 0 16 -8 21 -17 10 -17 10 -17 11 0 0 9 5 17 11 17 5 0 8 -4
5 -8 -2 -4 5 -9 17 -9 22 -2 22 -2 2 10 -29 17 -104 16 -98 -1z"/>
<path d="M1850 2165 c0 -8 2 -15 4 -15 2 0 6 7 10 15 3 8 1 15 -4 15 -6 0 -10
-7 -10 -15z"/>
<path d="M1876 2165 c-3 -8 -1 -15 4 -15 6 0 10 7 10 15 0 8 -2 15 -4 15 -2 0
-6 -7 -10 -15z"/>
<path d="M1560 2160 c0 -5 5 -10 10 -10 6 0 10 5 10 10 0 6 -4 10 -10 10 -5 0
-10 -4 -10 -10z"/>
<path d="M1593 2155 c0 -8 4 -12 9 -9 4 3 8 9 8 15 0 5 -4 9 -8 9 -5 0 -9 -7
-9 -15z"/>
<path d="M1620 2160 c0 -5 5 -10 10 -10 6 0 10 5 10 10 0 6 -4 10 -10 10 -5 0
-10 -4 -10 -10z"/>
<path d="M1900 2156 c0 -2 7 -7 16 -10 8 -3 12 -2 9 4 -6 10 -25 14 -25 6z"/>
<path d="M441 2124 c0 -11 3 -14 6 -6 3 7 2 16 -1 19 -3 4 -6 -2 -5 -13z"/>
<path d="M445 1980 c3 -5 8 -10 11 -10 2 0 4 5 4 10 0 6 -5 10 -11 10 -5 0 -7
-4 -4 -10z"/>
<path d="M1930 1941 c0 -6 5 -11 11 -11 8 0 7 -5 -1 -15 -11 -13 -10 -14 4 -9
20 8 20 18 1 34 -10 9 -15 9 -15 1z"/>
<path d="M2990 1940 c0 -6 -4 -9 -8 -6 -5 3 -9 -1 -9 -9 0 -8 2 -13 5 -10 3 2
14 0 24 -6 32 -17 44 5 14 25 -15 9 -26 12 -26 6z m30 -20 c8 -5 11 -10 5 -10
-5 0 -17 5 -25 10 -8 5 -10 10 -5 10 6 0 17 -5 25 -10z"/>
<path d="M1945 1890 c-8 -13 3 -30 20 -30 20 0 30 21 14 31 -18 11 -26 11 -34
-1z m30 -10 c3 -5 -1 -10 -9 -10 -9 0 -16 5 -16 10 0 6 4 10 9 10 6 0 13 -4
16 -10z"/>
<path d="M500 1861 c0 -5 7 -12 16 -15 14 -5 15 -4 4 9 -14 17 -20 19 -20 6z"/>
<path d="M1934 1840 c0 -10 6 -16 13 -13 7 3 13 9 13 13 0 4 -6 10 -13 13 -7
3 -13 -3 -13 -13z"/>
<path d="M1983 1853 c-17 -6 -17 -20 0 -26 8 -3 13 3 13 14 0 11 0 19 -1 18 0
0 -6 -3 -12 -6z"/>
<path d="M487 1833 c-16 -4 -15 -7 8 -25 14 -10 25 -24 25 -30 0 -7 -10 -2
-23 10 -25 24 -37 28 -37 12 0 -5 5 -9 11 -7 6 1 14 -4 16 -11 3 -8 -2 -10
-14 -6 -14 5 -15 4 -4 -4 8 -6 21 -7 30 -4 14 5 14 3 2 -11 -9 -11 -10 -17 -2
-17 6 0 11 5 11 11 0 5 4 8 8 5 4 -2 8 4 9 14 1 11 -3 23 -9 26 -7 4 -5 10 3
16 11 7 9 8 -5 4 -13 -5 -17 -2 -12 9 3 8 4 14 3 14 -1 -1 -10 -3 -20 -6z"/>
<path d="M1960 1813 c8 -3 22 -11 30 -17 13 -10 13 -9 1 7 -7 9 -21 17 -30 16
-13 0 -14 -1 -1 -6z"/>
<path d="M1935 1751 c1 -31 -3 -66 -7 -79 -5 -15 -4 -21 2 -17 6 3 10 12 10
19 0 8 7 19 15 26 17 15 19 7 5 -21 -6 -11 -7 -19 -2 -19 16 0 22 43 9 59 -10
12 -9 14 3 9 11 -4 16 0 16 13 0 17 -2 17 -18 2 -10 -9 -21 -14 -24 -11 -3 3
6 15 20 26 26 20 23 31 -14 44 -13 5 -16 -4 -15 -51z m35 30 c0 -5 -6 -14 -14
-21 -12 -9 -15 -8 -13 9 1 20 27 31 27 12z m-10 -65 c0 -3 -4 -8 -10 -11 -5
-3 -10 -1 -10 4 0 6 5 11 10 11 6 0 10 -2 10 -4z"/>
<path d="M475 1679 c1 -17 6 -33 10 -37 4 -4 5 2 3 12 -1 10 3 21 10 23 8 3
10 -2 6 -14 -5 -15 -4 -15 5 -3 12 18 24 9 15 -14 -3 -9 -11 -13 -16 -9 -6 3
-3 -8 8 -26 10 -17 23 -31 28 -31 5 0 2 8 -7 18 -21 23 -22 39 -2 22 9 -8 15
-8 15 -2 0 6 -6 13 -12 15 -10 4 -10 8 1 15 9 7 10 12 2 16 -6 4 -8 12 -5 18
4 7 2 8 -5 4 -6 -4 -22 -1 -35 8 -23 14 -23 14 -21 -15z"/>
<path d="M3025 1669 c-4 -6 -5 -12 -2 -15 2 -3 7 2 10 11 7 17 1 20 -8 4z"/>
<path d="M1931 1636 c-6 -7 -9 -21 -5 -30 3 -9 0 -24 -7 -34 -11 -14 -11 -15
1 -4 8 6 19 12 25 12 5 -1 1 -8 -10 -18 -13 -11 -20 -30 -21 -52 0 -38 20 -60
39 -40 9 8 8 10 -5 5 -17 -7 -26 9 -10 18 4 2 1 2 -6 0 -8 -1 -12 3 -10 9 3 7
13 13 24 13 15 0 19 7 20 36 0 19 4 40 7 46 4 6 0 16 -8 23 -9 8 -15 8 -15 2
0 -6 4 -12 10 -14 5 -2 6 -9 1 -17 -7 -11 -11 -9 -20 8 -15 27 -5 44 20 38 11
-3 17 -1 13 4 -8 13 -30 11 -43 -5z m25 -90 c-1 -16 -7 -24 -18 -23 -16 1 -15
9 5 35 13 17 15 15 13 -12z"/>
<path d="M2985 1444 c-9 -15 -12 -23 -6 -20 6 4 11 2 11 -3 0 -7 7 -7 20 1 11
7 20 17 20 22 0 6 -5 5 -12 -2 -17 -17 -33 -15 -18 3 7 9 11 18 8 21 -3 2 -13
-7 -23 -22z"/>
<path d="M1903 1439 c-1 -10 2 -21 8 -24 5 -4 6 2 2 11 -4 12 -3 15 5 10 7 -4
12 -3 12 2 0 19 -26 20 -27 1z"/>
<path d="M1885 1360 c-3 -5 -1 -10 4 -10 6 0 11 5 11 10 0 6 -2 10 -4 10 -3 0
-8 -4 -11 -10z"/>
<path d="M550 1331 c0 -6 8 -7 18 -4 15 6 15 5 3 -10 -12 -15 -12 -17 3 -11 9
4 15 12 13 18 -5 14 -37 21 -37 7z"/>
<path d="M1879 1323 c-13 -16 -12 -17 4 -4 9 8 21 11 24 7 4 -4 1 -11 -7 -16
-8 -6 -10 -10 -4 -10 6 0 17 6 23 14 9 11 8 15 -5 20 -21 8 -20 8 -35 -11z"/>
<path d="M530 1321 c0 -6 4 -13 10 -16 6 -3 7 1 4 9 -7 18 -14 21 -14 7z"/>
<path d="M1844 1229 c-4 -8 -3 -9 4 -5 18 11 14 -9 -3 -24 -9 -7 -13 -15 -10
-18 3 -3 -3 -14 -12 -25 -18 -19 -17 -19 5 -6 12 8 20 19 18 26 -3 7 4 19 15
26 17 12 17 16 5 26 -11 9 -16 9 -22 0z"/>
<path d="M613 1219 c-13 -13 -6 -39 9 -39 6 0 4 8 -3 17 -12 15 -12 16 3 10
12 -4 15 -2 11 9 -6 17 -6 17 -20 3z"/>
<path d="M1865 1189 c-4 -6 -5 -12 -2 -15 2 -3 7 2 10 11 7 17 1 20 -8 4z"/>
<path d="M655 966 c11 -8 26 -21 34 -28 12 -10 14 -9 8 5 -5 13 0 20 16 27 13
5 16 9 7 9 -9 1 -21 -4 -27 -10 -8 -8 -17 -8 -34 1 -23 11 -23 10 -4 -4z"/>
<path d="M666 925 c10 -16 19 -31 20 -33 1 -2 5 5 8 15 4 9 4 14 0 11 -3 -4
-15 3 -26 15 -19 22 -19 22 -2 -8z"/>
<path d="M864 714 c9 -8 16 -20 16 -26 0 -6 3 -9 6 -6 8 9 -14 48 -27 48 -6 0
-3 -7 5 -16z"/>
<path d="M3025 709 c-4 -6 -5 -12 -2 -15 2 -3 7 2 10 11 7 17 1 20 -8 4z"/>
<path d="M846 702 c-4 -7 -2 -12 4 -12 6 0 9 -4 6 -8 -2 -4 4 -13 15 -20 11
-7 19 -8 19 -2 0 5 -4 10 -8 10 -5 0 -13 10 -19 22 -6 15 -12 18 -17 10z"/>
<path d="M2990 647 c17 -11 25 -25 26 -47 2 -29 0 -31 -14 -17 -13 13 -13 19
-2 31 8 11 9 16 1 16 -6 0 -11 -5 -11 -11 0 -5 -4 -8 -8 -5 -4 2 -8 -4 -8 -14
0 -10 3 -17 6 -15 3 1 11 -3 18 -11 10 -10 10 -14 1 -14 -7 0 -9 -3 -6 -7 4
-3 16 2 27 12 16 14 17 20 8 27 -10 6 -10 10 1 17 10 6 10 10 1 16 -9 6 -9 9
1 16 10 6 8 8 -6 7 -11 0 -29 2 -40 6 -13 5 -11 2 5 -7z"/>
<path d="M1000 640 c0 -5 5 -10 11 -10 5 0 7 5 4 10 -3 6 -8 10 -11 10 -2 0
-4 -4 -4 -10z"/>
<path d="M997 569 c7 -7 15 -10 18 -7 3 3 -2 9 -12 12 -14 6 -15 5 -6 -5z"/>
<path d="M1180 542 c0 -4 10 -9 22 -9 18 -2 20 0 8 7 -18 12 -30 13 -30 2z"/>
<path d="M3390 520 c-13 -11 -19 -20 -15 -20 5 0 17 7 27 17 17 15 19 15 36 0
10 -10 22 -17 27 -17 4 0 -4 9 -18 20 -14 11 -27 20 -30 20 -2 0 -14 -9 -27
-20z"/>
<path d="M1133 515 c0 -8 4 -15 9 -15 4 0 8 7 8 15 0 8 -4 15 -8 15 -5 0 -9
-7 -9 -15z"/>
<path d="M1234 523 c4 -7 2 -13 -3 -13 -6 0 -11 -5 -11 -11 0 -8 6 -7 17 2 15
12 16 12 10 -3 -3 -10 -1 -20 5 -24 7 -4 8 -3 4 4 -10 16 7 15 23 0 11 -11 13
-10 7 0 -4 7 -1 15 8 18 9 3 13 11 10 16 -4 6 -11 4 -16 -7 -9 -15 -12 -15
-36 7 -14 12 -22 17 -18 11z"/>
<path d="M3055 510 c-3 -5 -1 -10 4 -10 6 0 11 5 11 10 0 6 -2 10 -4 10 -3 0
-8 -4 -11 -10z"/>
<path d="M1396 492 c-3 -5 -26 -7 -52 -6 -44 2 -45 2 -24 -13 16 -11 25 -12
33 -4 14 14 30 15 22 1 -3 -5 -2 -10 2 -10 5 0 14 9 21 20 7 11 10 20 8 20 -3
0 -7 -4 -10 -8z"/>
<path d="M1415 480 c-10 -11 -16 -22 -14 -24 2 -2 12 7 22 20 22 29 17 32 -8
4z"/>
<path d="M1665 489 c-4 -6 -5 -12 -2 -15 2 -3 7 2 10 11 7 17 1 20 -8 4z"/>
<path d="M1462 486 c4 -5 3 -15 -3 -23 -9 -9 -8 -13 0 -13 6 0 11 5 11 11 0 5
4 8 8 5 4 -2 14 -1 21 3 9 6 10 11 2 15 -6 4 -11 2 -11 -5 0 -8 -5 -8 -17 2
-10 7 -15 9 -11 5z"/>
<path d="M1521 468 c-13 -21 -13 -22 2 -10 9 8 22 10 29 6 10 -6 9 -3 -1 9
-17 21 -13 21 -30 -5z"/>
<path d="M1573 472 c1 -12 6 -18 15 -15 7 3 10 9 5 12 -4 3 -11 10 -15 15 -4
4 -6 -1 -5 -12z"/>
<path d="M1690 479 c0 -5 5 -7 10 -4 6 3 10 8 10 11 0 2 -4 4 -10 4 -5 0 -10
-5 -10 -11z"/>
</g>
</svg>
